# xmcd
#
# Track frame offsets: 
#        150
#        13188
#        29528
#        41103
#        55928
#        67843
#        84270
#        101055
#        116897
#        136664
#        154573
#        169041
#
# Disc length: 2541 seconds
#
# Revision: 0
# Processed by: cddbd v1.5.2PL0 Copyright (c) Steve Scherf et al.
# Submitted via: ExactAudioCopy v0.99pb5
#
DISCID=9609eb0c
DTITLE=Various Artist - Country Christmas - Disc 2
DYEAR=2011
DGENRE=Country
TTITLE0=Honky Tonk Christmas - Alan Jackson
TTITLE1=Christmas Time's A Comin' - Patty Loveless
TTITLE2=Santa Looked A Lot Like Daddy - The Tractors
TTITLE3=Penguin, James Penguin - Brad Paisley
TTITLE4=Merry Christmas From Texas Y'All - Tracy Byrd
TTITLE5=Christmas In Dixie - Kenny Chesney
TTITLE6=It Won't Be Christmas Without You - Brooks and Dunn
TTITLE7=Bells Are Ringing - Mary Chapin Carpenter
TTITLE8=Have Yourself A Merry Little Christmas - Lonestar
TTITLE9=Do You Hear What I Hear - Martina McBride
TTITLE10=O Little Town Of Bethlehem - Alabama
TTITLE11=O Come All Ye Faithfull - Sara Evans
EXTD=
EXTT0=
EXTT1=
EXTT2=
EXTT3=
EXTT4=
EXTT5=
EXTT6=
EXTT7=
EXTT8=
EXTT9=
EXTT10=
EXTT11=
PLAYORDER=
